name Walk2_EMG.mot
datacolumns 17
datarows 27
range 4.35800000 4.38400000
endheader
                time	            vasmed_r	            vaslat_r	            recfem_r	               gra_r	               sar_r	            tibant_r	           perlong_r	            addmag_r	           semimem_r	          bicfemlh_r	            gasmed_r	            gaslat_r	               sol_r	               tfl_r	              gmed_r	              gmax_r	
          4.35800000	          0.19791584	          0.13481090	          0.17991883	          0.57416629	          0.10185622	          0.15117868	          0.27339785	          0.37523789	          0.12514545	          0.07019754	          0.10091890	          0.14977456	          0.09818516	          0.21623816	          0.13113744	          0.17585419	
          4.35900000	          0.19027645	          0.12889423	          0.17840904	          0.57970959	          0.11010805	          0.15209667	          0.26600302	          0.37869447	          0.12568261	          0.07090499	          0.09818490	          0.14824164	          0.09504179	          0.21833145	          0.13023613	          0.17505618	
          4.36000000	          0.18347004	          0.12329700	          0.17689306	          0.58472144	          0.11875227	          0.15328444	          0.25869637	          0.38184674	          0.12612404	          0.07166852	          0.09549968	          0.14662659	          0.09192520	          0.22071201	          0.12922367	          0.17417031	
          4.36100000	          0.17746030	          0.11801889	          0.17536725	          0.58919041	          0.12779532	          0.15480349	          0.25149162	          0.38470825	          0.12646879	          0.07248745	          0.09286808	          0.14493325	          0.08884058	          0.22340119	          0.12810346	          0.17319722	
          4.36200000	          0.17220803	          0.11305755	          0.17382734	          0.59310593	          0.13724115	          0.15670535	          0.24440116	          0.38729493	          0.12671591	          0.07336147	          0.09029528	          0.14316539	          0.08579358	          0.22642415	          0.12687926	          0.17213756	
          4.36300000	          0.16767182	          0.10840932	          0.17226887	          0.59646007	          0.14709166	          0.15903190	          0.23743617	          0.38962368	          0.12686403	          0.07429083	          0.08778637	          0.14132733	          0.08279022	          0.22980970	          0.12555522	          0.17099198	
          4.36400000	          0.16380863	          0.10406981	          0.17068807	          0.59924934	          0.15734700	          0.16181864	          0.23060652	          0.39171226	          0.12691141	          0.07527642	          0.08534625	          0.13942447	          0.07983644	          0.23358898	          0.12413611	          0.16976130	
          4.36500000	          0.16057427	          0.10003405	          0.16908261	          0.60147477	          0.16800586	          0.16509806	          0.22392077	          0.39357883	          0.12685637	          0.07631917	          0.08298005	          0.13746339	          0.07693786	          0.23779516	          0.12262759	          0.16844680	
          4.36600000	          0.15792393	          0.09629642	          0.16745167	          0.60314058	          0.17906616	          0.16890112	          0.21738623	          0.39524033	          0.12669788	          0.07741928	          0.08069374	          0.13545179	          0.07409982	          0.24246109	          0.12103671	          0.16705057	
          4.36700000	          0.15581287	          0.09285057	          0.16579517	          0.60425244	          0.19052383	          0.17325655	          0.21100933	          0.39671072	          0.12643593	          0.07857545	          0.07849366	          0.13339809	          0.07132727	          0.24761342	          0.11937172	          0.16557607	
          4.36800000	          0.15419676	          0.08968935	          0.16411329	          0.60481558	          0.20237003	          0.17818827	          0.20479602	          0.39800004	          0.12607139	          0.07978465	          0.07638578	          0.13131106	          0.06862465	          0.25326751	          0.11764122	          0.16402864	
          4.36900000	          0.15303167	          0.08680470	          0.16240695	          0.60483394	          0.21458979	          0.18371273	          0.19875195	          0.39911418	          0.12560578	          0.08104230	          0.07437544	          0.12919929	          0.06599583	          0.25942680	          0.11585362	          0.16241607	
          4.37000000	          0.15227420	          0.08418788	          0.16067918	          0.60431169	          0.22716259	          0.18983922	          0.19288240	          0.40005536	          0.12504119	          0.08234257	          0.07246757	          0.12707126	          0.06344424	          0.26608551	          0.11401730	          0.16074853	
          4.37100000	          0.15188188	          0.08182958	          0.15893647	          0.60325644	          0.24006165	          0.19657273	          0.18719239	          0.40082280	          0.12438015	          0.08367883	          0.07066678	          0.12493562	          0.06097291	          0.27323141	          0.11214127	          0.15903754	
          4.37200000	          0.15181340	          0.07972000	          0.15718873	          0.60168149	          0.25325303	          0.20391492	          0.18168669	          0.40141313	          0.12362550	          0.08504451	          0.06897725	          0.12280118	          0.05858440	          0.28084686	          0.11023533	          0.15729511	
          4.37300000	          0.15202855	          0.07784909	          0.15544748	          0.59960566	          0.26669846	          0.21186181	          0.17636932	          0.40182066	          0.12278026	          0.08643417	          0.06740279	          0.12067642	          0.05628064	          0.28890803	          0.10830950	          0.15553355	
          4.37400000	          0.15248824	          0.07620663	          0.15372437	          0.59705106	          0.28035940	          0.22040152	          0.17124327	          0.40203831	          0.12184782	          0.08784367	          0.06594659	          0.11856886	          0.05406296	          0.29738431	          0.10637345	          0.15376518	
          4.37500000	          0.15315454	          0.07478191	          0.15203111	          0.59403992	          0.29419754	          0.22951351	          0.16631037	          0.40205946	          0.12083233	          0.08926948	          0.06461100	          0.11648472	          0.05193215	          0.30623960	          0.10443650	          0.15200211	
          4.37600000	          0.15399077	          0.07356357	          0.15037978	          0.59059270	          0.30817412	          0.23916818	          0.16157135	          0.40187951	          0.11973918	          0.09070807	          0.06339741	          0.11442885	          0.04988863	          0.31543494	          0.10250770	          0.15025628	
          4.37700000	          0.15496154	          0.07253987	          0.14878265	          0.58672852	          0.32225160	          0.24932693	          0.15702574	          0.40149591	          0.11857460	          0.09215583	          0.06230626	          0.11240488	          0.04793271	          0.32493246	          0.10059579	          0.14853909	
          4.37800000	          0.15603302	          0.07169912	          0.14725211	          0.58246757	          0.33639768	          0.25994310	          0.15267196	          0.40090750	          0.11734483	          0.09360876	          0.06133677	          0.11041576	          0.04606472	          0.33469999	          0.09870913	          0.14686114	
          4.37900000	          0.15717308	          0.07102980	          0.14580044	          0.57783337	          0.35058789	          0.27096317	          0.14850744	          0.40011449	          0.11605557	          0.09506225	          0.06048692	          0.10846442	          0.04428503	          0.34471486	          0.09685569	          0.14523276	
          4.38000000	          0.15835135	          0.07052035	          0.14443900	          0.57285327	          0.36480565	          0.28232786	          0.14452912	          0.39911862	          0.11471205	          0.09651102	          0.05975373	          0.10655400	          0.04259389	          0.35496644	          0.09504283	          0.14366460	
          4.38100000	          0.15953926	          0.07015891	          0.14317747	          0.56755687	          0.37904180	          0.29397331	          0.14073358	          0.39792311	          0.11331910	          0.09794930	          0.05913367	          0.10468762	          0.04099113	          0.36545793	          0.09327701	          0.14216752	
          4.38200000	          0.16070999	          0.06993332	          0.14202398	          0.56197429	          0.39329319	          0.30583273	          0.13711698	          0.39653267	          0.11188120	          0.09937083	          0.05862279	          0.10286801	          0.03947608	          0.37620533	          0.09156386	          0.14075294	
          4.38300000	          0.16183833	          0.06983135	          0.14098516	          0.55613514	          0.40756083	          0.31783835	          0.13367499	          0.39495333	          0.11040236	          0.10076903	          0.05821640	          0.10109735	          0.03804764	          0.38723176	          0.08990847	          0.13943297	
          4.38400000	          0.16290070	          0.06984079	          0.14006563	          0.55006807	          0.42184907	          0.32992352	          0.13040283	          0.39319157	          0.10888625	          0.10213701	          0.05790901	          0.09937731	          0.03670447	          0.39855958	          0.08831528	          0.13821972	
